<?xml version="1.0" encoding="UTF-8"?>
<!DOCTYPE svg PUBLIC "-//W3C//DTD SVG 1.1//EN" "http://www.w3.org/Graphics/SVG/1.1/DTD/svg11.dtd">
<!-- Creator: CorelDRAW -->
<svg xmlns="http://www.w3.org/2000/svg" xml:space="preserve" width="400px" height="185px" version="1.1" style="shape-rendering:geometricPrecision; text-rendering:geometricPrecision; image-rendering:optimizeQuality; fill-rule:evenodd; clip-rule:evenodd"
viewBox="0 0 372.01 172.395"
 xmlns:xlink="http://www.w3.org/1999/xlink"
 xmlns:xodm="http://www.corel.com/coreldraw/odm/2003">
 <defs>
  <style type="text/css">
   <![CDATA[
    .fil0 {fill:#201C6E}
    .fil2 {fill:#FFCC2A}
    .fil1 {fill:#201C6E;fill-rule:nonzero}
   ]]>
  </style>
 </defs>
 <g id="LOGO">
  <metadata id="CorelCorpID_0Corel-Layer"/>
  <path class="fil0" d="M188.408 171.913l43.805 0.103 28.486 -67.856 7.793 -0.279 29.325 67.508 46.031 -0.007 -36.145 -76.303c23.112,-2.372 44.748,-17.887 53.17,-39.475 10.696,-27.413 -4.13,-52.518 -30.871,-54.892 -8.019,-0.711 -56.255,-0.921 -64.779,-0.485l-76.815 171.686zm87.546 -100.99c14.927,0.041 31.312,-0.959 40.097,-15.402 13.243,-21.772 -2.478,-24.137 -22.223,-24.153l-17.874 39.555z"/>
  <polygon class="fil1" points="164.337,172.395 243.242,0.141 197.639,0.141 160.962,80.327 121.621,8.196 82.279,80.327 45.602,0.141 0,0.141 78.904,172.395 82.279,172.395 121.621,91.653 160.962,172.395 "/>
  <g id="_105553431686912">
   <polygon class="fil2" points="115.957,172.395 126.224,172.395 205.212,0.129 200.073,0.141 194.945,0.129 "/>
   <polygon class="fil2" points="161.413,172.395 171.68,172.395 250.663,0.129 245.524,0.141 240.396,0.129 "/>
   <path class="fil2" d="M280.82 49.895c33.559,0 64.843,9.87 91.19,26.897 -24.659,-14.136 -43.693,-20.072 -83.49,-22.213 -77.116,4.822 -125.686,38.106 -160.243,117.816l-12.32 0 5.6 -10.321c24.047,-65.509 86.276,-112.179 159.263,-112.179z"/>
   <path class="fil2" d="M281.333 91.596c1.548,0 3.086,0.038 4.621,0.093 0.398,0 1.109,0.025 2.06,0.078 21.166,0.635 48.059,4.485 67.281,12.973 -42.948,-16.307 -86.895,-7.529 -93.598,-6.448 -35.123,5.667 -72.183,36.099 -87.963,74.103l-12.321 0 5.49 -10.15 0.076 -0.146c16.752,-32.728 46.765,-57.355 82.824,-66.559 0.301,-0.252 0.075,-0.338 6.341,-1.445 2.324,-0.467 4.669,-0.871 7.035,-1.21 2.232,-0.368 4.836,-0.659 7.741,-0.863 3.435,-0.279 6.907,-0.426 10.413,-0.426z"/>
  </g>
 </g>
</svg>
