<?xml version="1.0" encoding="UTF-8"?>
<!DOCTYPE svg PUBLIC "-//W3C//DTD SVG 1.1//EN" "http://www.w3.org/Graphics/SVG/1.1/DTD/svg11.dtd">
<!-- Creator: CorelDRAW -->
<svg xmlns="http://www.w3.org/2000/svg" xml:space="preserve" width="232px" height="107px" version="1.1" style="shape-rendering:geometricPrecision; text-rendering:geometricPrecision; image-rendering:optimizeQuality; fill-rule:evenodd; clip-rule:evenodd"
viewBox="0 0 209.034 96.87"
 xmlns:xlink="http://www.w3.org/1999/xlink"
 xmlns:xodm="http://www.corel.com/coreldraw/odm/2003">
 <defs>
  <style type="text/css">
   <![CDATA[
    .fil0 {fill:#505050}
    .fil2 {fill:#707070}
    .fil1 {fill:#505050;fill-rule:nonzero}
   ]]>
  </style>
 </defs>
 <g id="LOGO">
  <metadata id="CorelCorpID_0Corel-Layer"/>
  <g id="_105553489824000">
   <path class="fil0" d="M105.868 96.599l24.614 0.058 16.006 -38.129 4.379 -0.157 16.478 37.933 25.865 -0.003 -20.31 -42.876c12.987,-1.332 25.144,-10.05 29.877,-22.181 6.01,-15.403 -2.321,-29.51 -17.347,-30.844 -4.506,-0.4 -31.61,-0.518 -36.4,-0.272l-43.162 96.471zm49.192 -56.747c8.388,0.023 17.595,-0.539 22.531,-8.654 7.441,-12.235 -1.393,-13.563 -12.487,-13.572l-10.044 22.226z"/>
   <polygon class="fil1" points="92.342,96.87 136.679,0.079 111.055,0.079 90.446,45.136 68.34,4.606 46.233,45.136 25.624,0.079 0,0.079 44.337,96.87 46.233,96.87 68.34,51.5 90.446,96.87 "/>
   <g>
    <polygon class="fil2" points="65.157,96.87 70.926,96.87 115.31,0.073 112.422,0.079 109.541,0.073 "/>
    <polygon class="fil2" points="90.699,96.87 96.468,96.87 140.849,0.073 137.961,0.079 135.08,0.073 "/>
    <path class="fil2" d="M157.794 28.036c18.858,0 36.436,5.546 51.24,15.114 -13.855,-7.943 -24.551,-11.279 -46.913,-12.482 -43.332,2.71 -70.623,21.412 -90.041,66.202l-6.923 0 3.147 -5.8c13.512,-36.81 48.479,-63.034 89.49,-63.034z"/>
    <path class="fil2" d="M158.083 51.468c0.869,0 1.734,0.021 2.596,0.052 0.224,0 0.624,0.014 1.158,0.044 11.893,0.357 27.005,2.521 37.805,7.29 -24.133,-9.163 -48.826,-4.231 -52.593,-3.623 -19.736,3.184 -40.56,20.284 -49.427,41.639l-6.923 0 3.085 -5.704 0.043 -0.082c9.412,-18.389 26.277,-32.228 46.539,-37.4 0.169,-0.141 0.042,-0.19 3.563,-0.812 1.306,-0.262 2.623,-0.489 3.953,-0.679 1.254,-0.208 2.717,-0.371 4.35,-0.486 1.93,-0.156 3.881,-0.239 5.851,-0.239z"/>
   </g>
  </g>
 </g>
</svg>
