<?xml version="1.0" encoding="UTF-8"?>
<!DOCTYPE svg PUBLIC "-//W3C//DTD SVG 1.1//EN" "http://www.w3.org/Graphics/SVG/1.1/DTD/svg11.dtd">
<!-- Creator: CorelDRAW -->
<svg xmlns="http://www.w3.org/2000/svg" xml:space="preserve" width="592px" height="304px" version="1.1" style="shape-rendering:geometricPrecision; text-rendering:geometricPrecision; image-rendering:optimizeQuality; fill-rule:evenodd; clip-rule:evenodd"
viewBox="0 0 620.041 318.786"
 xmlns:xlink="http://www.w3.org/1999/xlink"
 xmlns:xodm="http://www.corel.com/coreldraw/odm/2003">
 <defs>
  <style type="text/css">
   <![CDATA[
    .fil0 {fill:#CC9933}
    .fil1 {fill:white}
   ]]>
  </style>
 </defs>
 <g id="Layer_x0020_1">
  <metadata id="CorelCorpID_0Corel-Layer"/>
  <path class="fil0" d="M415.222 318.786l-79.685 0 -0.001 -318.744 79.686 0 0 318.744zm-168.114 0l-79.686 0 -0.001 -318.744 79.686 0 0.001 318.744z"/>
  <path class="fil1" d="M0 0.042l79.686 0c56.038,106.248 112.077,212.496 168.115,318.744l-79.685 0c-56.039,-106.248 -112.078,-212.496 -168.116,-318.744zm519.074 200.766c-0.167,0.079 0.168,0.081 0.502,0.081 55.485,0 100.465,-44.98 100.465,-100.465 0,-55.486 -44.98,-100.466 -100.466,-100.424l-184.039 0.042 37.482 71.065 146.56 0.081c0.35,0.069 0.696,0.063 1.043,0.063 16.112,0 29.173,13.061 29.173,29.173 0,16.111 -13.061,29.173 -29.173,29.173 -0.348,0 -0.695,-0.007 -1.044,0.026l-115.673 0.044 99.748 189.119 79.685 0 -64.263 -117.978zm-183.537 117.978l79.685 0c-56.039,-106.248 -112.076,-212.496 -168.114,-318.744l-79.687 0c56.039,106.248 112.077,212.496 168.116,318.744z"/>
 </g>
</svg>
