<?xml version="1.0" encoding="UTF-8"?>
<!DOCTYPE svg PUBLIC "-//W3C//DTD SVG 1.1//EN" "http://www.w3.org/Graphics/SVG/1.1/DTD/svg11.dtd">
<!-- Creator: CorelDRAW -->
<svg xmlns="http://www.w3.org/2000/svg" xml:space="preserve" width="400px" height="185px" version="1.1" style="shape-rendering:geometricPrecision; text-rendering:geometricPrecision; image-rendering:optimizeQuality; fill-rule:evenodd; clip-rule:evenodd"
viewBox="0 0 199.408 92.408"
 xmlns:xlink="http://www.w3.org/1999/xlink"
 xmlns:xodm="http://www.corel.com/coreldraw/odm/2003">
 <defs>
  <style type="text/css">
   <![CDATA[
    .fil0 {fill:#996633}
    .fil2 {fill:#CC9933}
    .fil1 {fill:#996633;fill-rule:nonzero}
   ]]>
  </style>
 </defs>
 <g id="LOGO">
  <metadata id="CorelCorpID_0Corel-Layer"/>
  <path class="fil0" d="M100.992 92.15l23.481 0.056 15.269 -36.373 4.177 -0.15 15.719 36.186 24.674 -0.003 -19.374 -40.901c12.388,-1.271 23.986,-9.588 28.5,-21.159 5.734,-14.695 -2.213,-28.152 -16.547,-29.424 -4.299,-0.382 -30.155,-0.494 -34.724,-0.26l-41.175 92.028zm46.927 -54.133c8.001,0.022 16.784,-0.514 21.493,-8.256 7.099,-11.671 -1.328,-12.938 -11.912,-12.947l-9.581 21.203z"/>
  <polygon class="fil1" points="88.09,92.408 130.385,0.076 105.94,0.076 86.28,43.058 65.192,4.394 44.104,43.058 24.444,0.076 0,0.076 42.295,92.408 44.104,92.408 65.192,49.129 86.28,92.408 "/>
  <g id="_105553431130336">
   <polygon class="fil2" points="62.156,92.408 67.66,92.408 109.999,0.069 107.245,0.076 104.496,0.069 "/>
   <polygon class="fil2" points="86.522,92.408 92.026,92.408 134.362,0.069 131.608,0.076 128.859,0.069 "/>
   <path class="fil2" d="M150.528 26.745c17.988,0 34.757,5.291 48.88,14.418 -13.218,-7.577 -23.421,-10.76 -44.753,-11.907 -41.336,2.585 -67.371,20.426 -85.895,63.152l-6.604 0 3.002 -5.532c12.89,-35.115 46.247,-60.131 85.37,-60.131z"/>
   <path class="fil2" d="M150.803 49.098c0.829,0 1.654,0.02 2.476,0.05 0.214,0 0.595,0.013 1.105,0.042 11.345,0.34 25.761,2.404 36.064,6.954 -23.021,-8.741 -46.578,-4.036 -50.171,-3.457 -18.827,3.038 -38.692,19.35 -47.151,39.721l-6.604 0 2.943 -5.44 0.041 -0.078c8.979,-17.543 25.067,-30.744 44.396,-35.678 0.161,-0.135 0.04,-0.181 3.399,-0.774 1.245,-0.251 2.502,-0.467 3.771,-0.649 1.196,-0.197 2.592,-0.353 4.149,-0.463 1.841,-0.149 3.702,-0.228 5.582,-0.228z"/>
  </g>
 </g>
</svg>
